<?xml version="1.0" encoding="UTF-8"?>
<svg xmlns="http://www.w3.org/2000/svg" version="1.1" viewBox="0 0 347.6 97.8">
  <defs>
    <style>
      .cls-1 {
        fill: #f37e4a;
      }

      .cls-2, .cls-3 {
        isolation: isolate;
      }

      .cls-4 {
        fill: #ec1873;
      }

      .cls-5 {
        fill: #0779be;
      }

      .cls-6 {
        fill: #2ab57e;
      }

      .cls-3 {
        fill: #fff;
        font-family: RimouskiSb-Regular, Rimouski;
        font-size: 40.4px;
      }
    </style>
  </defs>
  <!-- Generator: Adobe Illustrator 28.7.3, SVG Export Plug-In . SVG Version: 1.2.0 Build 164)  -->
  <g>
    <g id="Layer_1">
      <g class="cls-2">
        <g class="cls-2">
          <text class="cls-3" transform="translate(110 62.7)"><tspan x="0" y="0">MetaSpeed</tspan></text>
        </g>
      </g>
      <path class="cls-1" d="M78.1,68.2c1.4-4.5,2-9,1.4-13.7-.8-7.1-4.5-12.3-10.2-16.3-2-1.4-4.1-2.6-6.3-3.4-5.2-1.9-9.9-.7-14.2,2.5-.3.2-.6.5-.9.7,2.6-3.8,6-6.3,10.5-7.3,5.7-1.3,11.2-.4,16.6,1.3,7.5,2.4,13.3,7.3,18,13.3,2.4,3,2.1,5.9-.6,8.7-4.2,4.3-8.5,8.5-12.8,12.7-.5.5-1,.9-1.5,1.4h0Z"/>
      <path class="cls-5" d="M35.3,32.1c-1.4,3.7-2.1,7.6-1.9,11.5.3,7,3,12.8,8.6,17.1,2.3,1.7,4.7,3.3,7.2,4.5,4.8,2.2,9.6,1.5,14-1.4.5-.4,1.1-.8,1.7-1-1.7,2.6-4,4.5-6.9,5.8-4.5,2.1-9.3,1.9-14.1,1.2-9.7-1.5-17.1-6.6-23.2-13.9-3.1-3.6-3.1-6.3.3-9.9,4.5-4.8,9.3-9.4,14-14,0,0,.2,0,.3.2h0Z"/>
      <path class="cls-4" d="M38,71.6c2.7.6,5,1.3,7.3,1.6,6.6.8,12.8-.2,18-4.6,3.8-3.2,6.9-7,8.6-11.8,1.8-5.1.8-9.8-2.4-14.1-.3-.4-.5-.7-.9-1.1,2.5,1.2,5.5,4.9,6.7,8.3,1.8,4.8,1.4,9.7.4,14.7-1.8,9-6.9,15.9-13.8,21.7-3.5,2.9-6.4,2.8-9.6-.4-4.8-4.6-9.4-9.3-14.3-14.2h0Z"/>
      <path class="cls-6" d="M44.5,59.1c-5.5-3.9-8.1-9.3-8-15.8,0-9.9,3.7-18.4,10.7-25.4,1.6-1.6,3.4-3.2,5.2-4.6,2.3-1.7,4.7-1.5,7,.1,1.4,1.1,2.8,2.3,4,3.5,3.9,3.9,7.7,7.8,11.6,11.8-2.3-.5-4.4-1.2-6.6-1.5-7.3-1-14.1.2-19.7,5.4-3.1,2.9-5.8,6.3-7.4,10.4-2,5.4-1,10.2,2.3,14.7.2.3.5.6.7.9v.3l.2.2Z"/>
    </g>
  </g>
</svg>