<?xml version="1.0" encoding="UTF-8"?>
<svg id="Layer_1" xmlns="http://www.w3.org/2000/svg" viewBox="0 0 340.45 143.44">
  <defs>
    <style>
      .cls-1 {
        fill: none;
        stroke: gray;
        stroke-miterlimit: 10;
        stroke-width: .94px;
      }

      .cls-2 {
        fill: #427ec5;
      }

      .cls-3 {
        fill: #8e3c3a;
      }

      .cls-4 {
        fill: #f6f6f6;
      }

      .cls-5 {
        fill: #4d4d4d;
      }

      .cls-6 {
        fill: #e6e9ed;
      }

      .cls-7 {
        fill: #e9ebee;
      }

      .cls-8 {
        fill: #d70127;
      }

      .cls-9 {
        fill: #d70027;
      }

      .cls-10 {
        fill: #cd5351;
      }

      .cls-11 {
        fill: #231f20;
      }

      .cls-12, .cls-13 {
        fill: #0f2552;
      }

      .cls-14 {
        fill: #666;
      }

      .cls-15 {
        fill: #c1272d;
      }

      .cls-16 {
        fill: #efeeee;
      }

      .cls-17 {
        fill: #e5e8ec;
      }

      .cls-18 {
        fill: #0052b3;
      }

      .cls-19 {
        fill: #eaecee;
      }

      .cls-20 {
        fill: #efefef;
      }

      .cls-21 {
        fill: #df435f;
      }

      .cls-22 {
        fill: #d70128;
      }

      .cls-23 {
        fill: #e8eaed;
      }

      .cls-24 {
        fill: #e5e8ed;
      }

      .cls-25 {
        font-family: Insaniburger, Insaniburger;
        font-size: 22px;
      }

      .cls-26 {
        fill: #edc64a;
      }

      .cls-27 {
        fill: #fefefe;
      }

      .cls-28 {
        fill: #fffffe;
      }

      .cls-13 {
        letter-spacing: -.12em;
      }
    </style>
  </defs>
  <text class="cls-25" transform="translate(104.69 103.01)"><tspan class="cls-12" x="0" y="0">P</tspan><tspan class="cls-13" x="12.01" y="0">a</tspan><tspan class="cls-12" x="23.63" y="0">tented in</tspan><tspan class="cls-11" x="120.95" y="0"> </tspan><tspan class="cls-15" x="126.27" y="0">USA</tspan></text>
  <g>
    <path class="cls-14" d="M18.42,5.95c.84,1.85,1.7,3.68,2.49,5.55.19.45.67,1.13-.21,1.42-.55.19-.9-.24-1.07-.71-.79-2.16-2.21-4.08-2.37-6.47.38.07.77.14,1.15.21Z"/>
    <path class="cls-14" d="M24.71,21.22c4.73,11.31,9.45,22.63,14.18,33.94-.42.18-.85.35-1.27.53-4.75-11.3-9.6-22.57-14.12-33.97.4-.17.81-.33,1.21-.5Z"/>
    <path class="cls-14" d="M17.57,69.23c-.54.28-1.03.19-1.4-.14-5.18-4.56-10.35-9.13-15.51-13.71-.41-.36-1.01-.82-.37-1.4.43-.39.91,0,1.28.32,5.31,4.71,10.61,9.42,15.9,14.15.16.14.08.53.12.79Z"/>
    <path class="cls-14" d="M66.48,42.11c-.4,2.19-.79,4.39-1.22,6.58-.12.6-.01,1.59-1.03,1.37-.68-.14-.56-.94-.48-1.5.69-4.61,1.4-9.21,2.11-13.82.07-.46.16-1.07.77-.98.79.12.68.81.58,1.38-.41,2.29-.84,4.58-1.26,6.87.18.03.36.07.53.1Z"/>
  </g>
  <path class="cls-1" d="M69.73,68.71h241.32c14.59,0,26.41,11.82,26.41,26.41h0c0,14.59-11.82,26.41-26.41,26.41H78.36"/>
  <g>
    <path class="cls-27" d="M324.22,97.72c0,4.75-.02,9.5.02,14.25,0,.69-.16.84-.84.84-11.24-.02-22.48-.02-33.71,0-.69,0-.84-.15-.84-.84.02-11.24.02-22.48,0-33.71,0-.69.15-.85.84-.84,4.84.03,9.68.02,14.53.02.09.13.09.25-.03.37-2.14.63-4.32,1.16-6.26,2.35-1.01.58-1.85,1.38-2.72,2.15-1.71,1.22-2.83,2.88-3.58,4.81-.31.79-1.12,1.33-1.13,2.27-.34,1.06-.63,2.14-.79,3.24-.2.78-.18,1.58-.18,2.38-.07,1.48.29,2.91.52,4.35.28,1.61,1.13,2.99,1.83,4.43,1.17,1.96,2.65,3.63,4.48,5,2.96,2,6.18,3.25,9.79,3.38,4.01.14,7.6-1.11,10.87-3.38,1.84-1.35,3.3-3.05,4.48-4.99.75-1.4,1.46-2.81,1.82-4.38.28-.58.02-1.45.92-1.69Z"/>
    <path class="cls-18" d="M297.61,79.9c2.08-1.05,4.17-2.05,6.55-2.23.45-.25.99.09,1.43-.24h1.1c.75,1.21.32,2.55.4,3.83.04,1.55.04,3.1,0,4.66.04,1.47.04,2.95,0,4.42-.1,1.58.39,3.21-.38,4.73-.61.41-1.31.34-1.98.34-4.5,0-9,.01-13.51,0-.72,0-1.47.09-2.07-.47.03-.8-.12-1.62.29-2.37.13-.25.38-.55.6-.46.92.36.78-.35,1.1-.82.45-.67.26-.7-.32-.87-.6-.17-.45-.79-.58-1.24.99-2.63,2.29-5.06,4.41-6.97.11-.1.33-.09.5-.13.73-.03,1.46-.49,2.26.18-.21-.67-.24-1.24.22-1.5.71-.39-.25-.59-.03-.88Z"/>
    <path class="cls-20" d="M289.15,94.95c5.84,0,11.68,0,17.53-.01.45-.38,1.01-.39,1.55-.39,4.77-.01,9.54-.01,14.32,0,.59,0,1.19,0,1.67.44v2.74c-.4.61-.47,1.31-.6,2-.63.33-1.3.36-1.99.36-10.02,0-20.03,0-30.05,0-.63,0-1.28.05-1.84-.35-.27-1.59-.73-3.15-.58-4.78Z"/>
    <path class="cls-8" d="M324.22,94.98c-5.85-.02-11.69-.03-17.54-.05.02-1.52.03-3.03.05-4.55.35-.44.86-.49,1.36-.49,4.81-.03,9.63-.04,14.44,0,.32,0,.63.06.93.18.78.59.57,1.46.62,2.25.07.51-.15,1.06.14,1.55v1.1Z"/>
    <path class="cls-27" d="M323.98,92.47c-.12-.68-.23-1.36-.35-2.03-1.05-1.38-1.36-3.14-2.34-4.56-1.1-1.66-2.38-3.16-3.91-4.43-2.43-1.9-5.28-2.88-8.22-3.64-.11-.12-.12-.24-.02-.37,4.75,0,9.5.02,14.25-.02.69,0,.85.15.84.84-.03,4.75-.02,9.5-.02,14.25-.11.13-.19.11-.24-.05Z"/>
    <path class="cls-20" d="M309.14,77.71c3.23.23,5.96,1.65,8.5,3.54-.41.46-.97.45-1.51.45-2.63.02-5.26.02-7.89,0-.54,0-1.1,0-1.52-.44-.02-1.28-.03-2.55-.05-3.83h1.1c.41.34.96-.05,1.37.27Z"/>
    <path class="cls-2" d="M305.58,77.44c-.42.43-.93.3-1.43.24.03-.08.05-.15.05-.24h1.37Z"/>
    <path class="cls-4" d="M309.14,77.71c-.46-.06-.99.18-1.37-.27h1.37c0,.09,0,.18,0,.27Z"/>
    <path class="cls-21" d="M323.98,92.47c.08,0,.16.02.24.05v1.37c-.43-.42-.3-.92-.24-1.42Z"/>
    <path class="cls-9" d="M289.73,99.73c.4-.05.8-.15,1.21-.15,10.49,0,20.98,0,31.47,0,.4,0,.81.09,1.21.14-.52,1.48-1.11,2.93-1.86,4.3-.64.42-1.37.45-2.1.45-8.65,0-17.3,0-25.95,0-.73,0-1.46-.02-2.1-.45-.73-1.38-1.38-2.81-1.87-4.3Z"/>
    <path class="cls-16" d="M291.6,104.03c.63.03,1.27.08,1.9.08,8.87,0,17.74,0,26.61,0,.54,0,1.09-.05,1.63-.08-1.2,1.88-2.63,3.55-4.4,4.93-2.76.33-5.53.13-8.29.16-3.27.03-6.54,0-9.81,0-1.09,0-2.17.01-3.25-.17-1.77-1.37-3.2-3.05-4.4-4.93Z"/>
    <path class="cls-8" d="M296,108.96c.18-.41.55-.25.83-.25,6.56,0,13.13,0,19.69,0,.29,0,.65-.16.83.25-7.12,4.82-14.23,4.8-21.35,0Z"/>
    <path class="cls-24" d="M290.25,89.2c.23,1.06,1,1.31,2.39,1.13-1.3.79-1.79,1.53-1.01,2.68-.86-.21-1.37-1.21-2.2-.43-.04-1.2.37-2.3.81-3.38Z"/>
    <path class="cls-6" d="M297.61,79.9c.15.52.65.12.98.42-.92.54-1.5,1.24-.76,2.44-.81-.48-1.53-1.01-2.38-.21-.19.18-.25-.25-.29-.45.58-.99,1.61-1.49,2.45-2.2Z"/>
    <path class="cls-20" d="M321.52,85.66c.95,1.48,1.66,3.07,2.11,4.77-5.64-.01-11.27-.03-16.91-.04,0-1.51,0-3.03,0-4.54.38-.31.84-.33,1.3-.33,4.14-.03,8.28,0,12.42-.01.37,0,.71.13,1.08.16Z"/>
    <path class="cls-22" d="M321.52,85.66c-.39.35-.87.18-1.3.18-4.5.01-8.99,0-13.49,0,0-1.53,0-3.05,0-4.58,3.64,0,7.28,0,10.92-.01,1.5,1.29,2.85,2.71,3.88,4.41Z"/>
    <path class="cls-24" d="M303.94,93.04c-.84-1.16-1.61-.67-2.56.09.36-1.15.62-2.11-.82-2.61,1.3.06,1.95-.42,2.12-1.88.36,1.37.92,2.03,2.19,1.77-.86.67-1.41,1.41-.93,2.64Z"/>
    <path class="cls-23" d="M300.7,80.34q1.45-.21,2.06-1.75c.25,1.19.8,1.91,2.17,1.66-1.14.6-1.42,1.41-.82,2.53-.86-.61-1.63-.98-2.69.18.38-1.28.37-2.13-.71-2.61Z"/>
    <path class="cls-17" d="M297.63,93.06c-.75-1.05-1.55-.74-2.7.04.77-1.32.31-2.01-.92-2.77,1.49.21,2.24-.09,2.28-1.73.48,1.38,1.02,2.11,2.3,1.85-1.08.62-1.26,1.5-.98,2.62Z"/>
    <path class="cls-7" d="M294.41,85.41c1.39.24,1.73-.59,1.97-1.72.42,1.03.73,1.99,2.11,1.73-.98.61-1.24,1.35-.71,2.41-.97-.91-1.85-.6-2.84.07.82-1.09.54-1.83-.53-2.48Z"/>
    <path class="cls-19" d="M302.72,83.85c.37,1.02.71,1.87,2.11,1.51-.98.66-1.34,1.37-.84,2.47-.96-1.04-1.78-.48-2.7.17.18-.66.48-1.15.39-1.55-.08-.36-.6-.62-1.11-1.09,1.39.19,1.97-.4,2.16-1.51Z"/>
  </g>
  <g>
    <polygon class="cls-10" points="35.66 105.01 30.73 138.54 41.45 129.86 48.77 141.47 53.88 109.94 35.66 105.01"/>
    <polygon class="cls-10" points="56.04 108.26 72.67 137.49 75.37 123.71 89.08 128.36 73.11 100 56.04 108.26"/>
    <polygon class="cls-3" points="33.13 122.22 41.5 119.13 47.84 125.81 51.94 121.93 53.88 109.94 35.66 105.01 33.13 122.22"/>
    <polygon class="cls-3" points="75.83 106.46 76.59 106.18 73.11 100 56.04 108.26 63.63 121.6 66.62 114.65 75.83 114.65 75.83 106.46"/>
    <polygon class="cls-26" points="75.18 93.55 80.55 88.45 75.46 83.08 78.38 76.29 71.58 73.36 71.58 65.97 65.01 65.97 62.73 59.8 55.79 62.36 50.7 56.99 45.33 62.09 38.53 59.17 35.61 65.97 28.21 65.97 28.21 72.54 22.04 74.81 24.61 81.75 19.24 86.85 24.33 92.22 21.41 99.01 28.21 101.94 28.21 109.34 34.78 109.34 37.06 115.5 44 112.94 49.09 118.31 54.46 113.21 61.26 116.13 64.18 109.34 71.58 109.34 71.58 102.76 77.75 100.49 75.18 93.55"/>
    <polygon class="cls-5" points="50.13 102.33 34.01 90.2 37.82 85.9 48.31 92.84 60.11 75.88 65.78 78.37 50.13 102.33"/>
    <polygon class="cls-28" points="50.13 100.88 34.01 90.2 37.82 84.44 48.31 91.38 60.11 74.42 65.78 78.37 50.13 100.88"/>
  </g>
</svg>